# xmcd
#
# Track frame offsets: 
#        150
#        132238
#        161529
#        172263
#        186473
#        206464
#        239830
#        256088
#        278323
#        294316
#        316746
#
# Disc length: 4477 seconds
#
# Revision: 1
# Processed by: cddbd v1.5.2PL0 Copyright (c) Steve Scherf et al.
# Submitted via: ExactAudioCopy v0.99pb4
#
DISCID=9d117b0b
DTITLE=Аркадий Северный - Член Ты Мой Опавший
DYEAR=2000
DGENRE=Chanson
TTITLE0=Лука Мудищев
TTITLE1=Садко-Богатый Гость
TTITLE2=Океан Шумит И Пенится
TTITLE3=Как-То Летом
TTITLE4=Член Ты Мой Опавший
TTITLE5=На Молдаванке
TTITLE6=Жили-Были Дед Да Баба
TTITLE7=На Колыме
TTITLE8=Раз Пришлось Мне Как-То Летом
TTITLE9=Много У Нас Диковин
TTITLE10=Не Ходи Ты Так Поздно
EXTD=
EXTT0=
EXTT1=
EXTT2=
EXTT3=
EXTT4=
EXTT5=
EXTT6=
EXTT7=
EXTT8=
EXTT9=
EXTT10=
PLAYORDER=
